<?xml version="1.0" encoding="utf-8"?>
<!-- Generator: Adobe Illustrator 23.0.3, SVG Export Plug-In . SVG Version: 6.00 Build 0)  -->
<svg version="1.1" id="Layer_1" xmlns="http://www.w3.org/2000/svg" xmlns:xlink="http://www.w3.org/1999/xlink" x="0px" y="0px"
	 viewBox="0 0 387.9 387.9" style="enable-background:new 0 0 387.9 387.9;" xml:space="preserve">
<style type="text/css">
	.st0{fill:url(#SVGID_1_);}
	.st1{fill:url(#SVGID_2_);}
	.st2{fill:url(#SVGID_3_);}
	.st3{fill:url(#SVGID_4_);}
	.st4{fill:url(#SVGID_5_);}
	.st5{fill:url(#SVGID_6_);}
	.st6{fill:url(#SVGID_7_);}
	.st7{fill:url(#SVGID_8_);}
	.st8{fill:url(#SVGID_9_);}
	.st9{fill:url(#SVGID_10_);}
	.st10{fill:url(#SVGID_11_);}
	.st11{fill:url(#SVGID_12_);}
	.st12{fill:url(#SVGID_13_);}
	.st13{fill:url(#SVGID_14_);}
	.st14{fill:url(#SVGID_15_);}
	.st15{fill:url(#SVGID_16_);}
	.st16{fill:url(#SVGID_17_);}
	.st17{fill:url(#SVGID_18_);}
	.st18{fill:url(#SVGID_19_);}
	.st19{fill:url(#SVGID_20_);}
	.st20{fill:url(#SVGID_21_);}
	.st21{fill:url(#SVGID_22_);}
	.st22{fill:url(#SVGID_23_);}
	.st23{fill:url(#SVGID_24_);}
	.st24{fill:url(#SVGID_25_);}
	.st25{fill:url(#SVGID_26_);}
	.st26{fill:url(#SVGID_27_);}
	.st27{fill:url(#SVGID_28_);}
	.st28{fill:url(#SVGID_29_);}
	.st29{fill:url(#SVGID_30_);}
	.st30{fill:url(#SVGID_31_);}
	.st31{fill:url(#SVGID_32_);}
	.st32{fill:url(#SVGID_33_);}
	.st33{fill:url(#SVGID_34_);}
	.st34{fill:url(#SVGID_35_);}
	.st35{fill:url(#SVGID_36_);}
	.st36{fill:url(#SVGID_37_);}
	.st37{fill:url(#SVGID_38_);}
	.st38{fill:url(#SVGID_39_);}
	.st39{fill:url(#SVGID_40_);}
	.st40{fill:url(#SVGID_41_);}
	.st41{fill:url(#SVGID_42_);}
	.st42{fill:url(#SVGID_43_);}
	.st43{fill:url(#SVGID_44_);}
	.st44{fill:url(#SVGID_45_);}
	.st45{fill:url(#SVGID_46_);}
	.st46{fill:url(#SVGID_47_);}
	.st47{fill:url(#SVGID_48_);}
	.st48{fill:url(#SVGID_49_);}
	.st49{fill:url(#SVGID_50_);}
	.st50{fill:url(#SVGID_51_);}
	.st51{fill:url(#SVGID_52_);}
	.st52{fill:url(#SVGID_53_);}
	.st53{fill:url(#SVGID_54_);}
	.st54{fill:url(#SVGID_55_);}
	.st55{fill:url(#SVGID_56_);}
	.st56{fill:url(#SVGID_57_);}
	.st57{fill:url(#SVGID_58_);}
	.st58{fill:url(#SVGID_59_);}
	.st59{fill:url(#SVGID_60_);}
	.st60{fill:url(#SVGID_61_);}
	.st61{fill:url(#SVGID_62_);}
	.st62{fill:url(#SVGID_63_);}
	.st63{fill:url(#SVGID_64_);}
	.st64{fill:url(#SVGID_65_);}
	.st65{fill:url(#SVGID_66_);}
	.st66{fill:url(#SVGID_67_);}
	.st67{fill:url(#SVGID_68_);}
	.st68{fill:url(#SVGID_69_);}
	.st69{fill:url(#SVGID_70_);}
	.st70{fill:url(#SVGID_71_);}
	.st71{fill:url(#SVGID_72_);}
	.st72{fill:url(#SVGID_73_);}
	.st73{fill:url(#SVGID_74_);}
	.st74{fill:url(#SVGID_75_);}
	.st75{fill:url(#SVGID_76_);}
	.st76{fill:url(#SVGID_77_);}
	.st77{fill:url(#SVGID_78_);}
	.st78{fill:url(#SVGID_79_);}
	.st79{fill:url(#SVGID_80_);}
	.st80{fill:url(#SVGID_81_);}
	.st81{fill:url(#SVGID_82_);}
	.st82{fill:url(#SVGID_83_);}
	.st83{fill:url(#SVGID_84_);}
	.st84{fill:url(#SVGID_85_);}
	.st85{fill:url(#SVGID_86_);}
	.st86{fill:url(#SVGID_87_);}
	.st87{fill:url(#SVGID_88_);}
	.st88{fill:url(#SVGID_89_);}
	.st89{fill:url(#SVGID_90_);}
	.st90{fill:url(#SVGID_91_);}
	.st91{fill:url(#SVGID_92_);}
	.st92{fill:url(#SVGID_93_);}
	.st93{fill:url(#SVGID_94_);}
	.st94{fill:url(#SVGID_95_);}
	.st95{fill:url(#SVGID_96_);}
	.st96{fill:url(#SVGID_97_);}
	.st97{fill:url(#SVGID_98_);}
	.st98{fill:url(#SVGID_99_);}
	.st99{fill:url(#SVGID_100_);}
	.st100{fill:url(#SVGID_101_);}
	.st101{fill:url(#SVGID_102_);}
	.st102{fill:url(#SVGID_103_);}
	.st103{fill:url(#SVGID_104_);}
	.st104{fill:url(#SVGID_105_);}
	.st105{fill:url(#SVGID_106_);}
	.st106{fill:url(#SVGID_107_);}
	.st107{fill:url(#SVGID_108_);}
	.st108{fill:url(#SVGID_109_);}
	.st109{fill:url(#SVGID_110_);}
	.st110{fill:url(#SVGID_111_);}
	.st111{fill:url(#SVGID_112_);}
	.st112{fill:url(#SVGID_113_);}
	.st113{fill:url(#SVGID_114_);}
	.st114{fill:url(#SVGID_115_);}
	.st115{fill:url(#SVGID_116_);}
	.st116{fill:url(#SVGID_117_);}
	.st117{fill:url(#SVGID_118_);}
	.st118{fill:url(#SVGID_119_);}
	.st119{fill:url(#SVGID_120_);}
	.st120{fill:url(#SVGID_121_);}
	.st121{fill:url(#SVGID_122_);}
	.st122{fill:url(#SVGID_123_);}
	.st123{fill:url(#SVGID_124_);}
	.st124{fill:url(#SVGID_125_);}
	.st125{fill:url(#SVGID_126_);}
	.st126{fill:url(#SVGID_127_);}
	.st127{fill:url(#SVGID_128_);}
	.st128{fill:url(#SVGID_129_);}
	.st129{fill:url(#SVGID_130_);}
	.st130{fill:url(#SVGID_131_);}
	.st131{fill:url(#SVGID_132_);}
	.st132{fill:url(#SVGID_133_);}
	.st133{fill:url(#SVGID_134_);}
	.st134{fill:url(#SVGID_135_);}
	.st135{fill:url(#SVGID_136_);}
	.st136{fill:url(#SVGID_137_);}
	.st137{fill:url(#SVGID_138_);}
	.st138{fill:url(#SVGID_139_);}
	.st139{fill:url(#SVGID_140_);}
	.st140{fill:url(#SVGID_141_);}
	.st141{fill:url(#SVGID_142_);}
	.st142{fill:url(#SVGID_143_);}
	.st143{fill:url(#SVGID_144_);}
	.st144{fill:url(#SVGID_145_);}
	.st145{fill:url(#SVGID_146_);}
	.st146{fill:url(#SVGID_147_);}
	.st147{fill:url(#SVGID_148_);}
	.st148{fill:url(#SVGID_149_);}
	.st149{fill:url(#SVGID_150_);}
	.st150{fill:url(#SVGID_151_);}
	.st151{fill:url(#SVGID_152_);}
	.st152{fill:url(#SVGID_153_);}
	.st153{fill:url(#SVGID_154_);}
	.st154{fill:url(#SVGID_155_);}
	.st155{fill:url(#SVGID_156_);}
	.st156{fill:url(#SVGID_157_);}
	.st157{fill:url(#SVGID_158_);}
	.st158{fill:url(#SVGID_159_);}
	.st159{fill:url(#SVGID_160_);}
	.st160{fill:url(#SVGID_161_);}
	.st161{fill:url(#SVGID_162_);}
	.st162{fill:url(#SVGID_163_);}
	.st163{fill:url(#SVGID_164_);}
	.st164{fill:url(#SVGID_165_);}
	.st165{fill:url(#SVGID_166_);}
	.st166{fill:url(#SVGID_167_);}
	.st167{fill:url(#SVGID_168_);}
	.st168{fill:url(#SVGID_169_);}
	.st169{fill:url(#SVGID_170_);}
</style>
<linearGradient id="SVGID_1_" gradientUnits="userSpaceOnUse" x1="97.3326" y1="226.5518" x2="332.7816" y2="226.5518">
	<stop  offset="0" style="stop-color:#067FED"/>
	<stop  offset="1" style="stop-color:#07EDE6"/>
</linearGradient>
<path class="st0" d="M207.7,326.9c12.5-2.4,25-4.7,36.8-9.6c74.7-31.2,102.3-122.2,57.4-189.5c-0.7-1.1-1.4-2.2-2.2-3.2
	c-1.6-2.3-1.6-4.7,0.7-6.3c2.4-1.8,4.9-1.3,6.8,1.2c4.3,6,8.1,12.3,11.4,18.9c42.4,85.7-14.4,187.8-109.5,197
	c-37.1,3.6-70.1-6.5-99.5-29.3c-0.8-0.6-1.6-1.3-3.3-2.7c0,4.3,0,7.6,0,10.9c0,2.4-0.8,4.4-3.2,5.1c-2.5,0.8-4.7,0.1-5.6-2.8
	c0.5-8.2,0.8-16.4-0.1-24.6c0.4-3.3,2.7-4,5.6-4c6.5,0,13,0,19.5,0c3.4,0,6.3,0.9,6.1,4.9c-0.2,3.7-2.9,4.3-6.1,4.2
	c-2.5-0.1-5,0-9,0c13.3,11.2,27.1,18.3,42,23.5c9,3.1,18.4,4.1,27.6,6.2C191.3,328.3,199.5,328.3,207.7,326.9z"/>
<linearGradient id="SVGID_2_" gradientUnits="userSpaceOnUse" x1="58.3378" y1="171.2491" x2="293.4269" y2="171.2491">
	<stop  offset="0" style="stop-color:#067FED"/>
	<stop  offset="1" style="stop-color:#07EDE6"/>
</linearGradient>
<path class="st1" d="M58.3,190.5C59.7,136.8,99.6,85,153.8,68.3c45.2-14,87.2-6.2,125.4,21.9c1.5,1.1,3,2.3,5.4,4.2
	c0-4.2,0-7.5,0-10.8c0-2.4,0.8-4.4,3.2-5.1c2.5-0.8,4.7-0.1,5.6,2.8c-0.5,8.2-0.8,16.4,0.2,24.6c-0.4,3.3-2.7,4-5.6,4
	c-6.5,0-13,0-19.4,0c-3.4,0-6.2-0.9-6.1-4.9c0.1-3.9,3.3-4,6.1-4.2c2.5-0.1,5,0,9,0c-16.1-13.3-32.9-21.6-51.5-26.1
	c-6-1.5-12.2-2.5-18.3-3.7c-8.2-1.4-16.4-1.4-24.6,0c-11.6,2.4-23.2,4.3-34.4,8.7c-53,21-86.1,73.7-81.2,130.5
	c1.9,21.7,9.1,41.7,21.3,59.8c0.5,0.7,1,1.4,1.5,2.1c2,2.6,3.3,5.6,0,7.9c-3.2,2.2-5.6,0.2-7.5-2.6c-12.5-18.1-20.4-38-23.4-59.8
	c-0.5-3.4-0.7-6.9-1-10.3C59.1,201.7,59.1,196.1,58.3,190.5z"/>
<linearGradient id="SVGID_3_" gradientUnits="userSpaceOnUse" x1="292.0521" y1="93.5769" x2="293.4269" y2="93.5769">
	<stop  offset="0" style="stop-color:#067FED"/>
	<stop  offset="1" style="stop-color:#07EDE6"/>
</linearGradient>
<path class="st2" d="M293.4,105.9c-1.9-8.2-1.7-16.4-0.2-24.6C293.3,89.5,293.4,97.7,293.4,105.9z"/>
<linearGradient id="SVGID_4_" gradientUnits="userSpaceOnUse" x1="97.3326" y1="304.277" x2="98.7021" y2="304.277">
	<stop  offset="0" style="stop-color:#067FED"/>
	<stop  offset="1" style="stop-color:#07EDE6"/>
</linearGradient>
<path class="st3" d="M97.3,292c1.9,8.2,1.7,16.4,0.1,24.6C97.4,308.4,97.4,300.2,97.3,292z"/>
<linearGradient id="SVGID_5_" gradientUnits="userSpaceOnUse" x1="183.0576" y1="70.0583" x2="207.7037" y2="70.0583">
	<stop  offset="0" style="stop-color:#067FED"/>
	<stop  offset="1" style="stop-color:#07EDE6"/>
</linearGradient>
<path class="st4" d="M183.1,71c8.2-2.4,16.4-2.4,24.6,0C199.5,71,191.3,71,183.1,71z"/>
<linearGradient id="SVGID_6_" gradientUnits="userSpaceOnUse" x1="183.0514" y1="327.7951" x2="207.6976" y2="327.7951">
	<stop  offset="0" style="stop-color:#067FED"/>
	<stop  offset="1" style="stop-color:#07EDE6"/>
</linearGradient>
<path class="st5" d="M207.7,326.9c-8.2,2.4-16.4,2.4-24.6,0C191.3,326.9,199.5,326.9,207.7,326.9z"/>
<linearGradient id="SVGID_7_" gradientUnits="userSpaceOnUse" x1="58.3378" y1="198.92" x2="59.657" y2="198.92">
	<stop  offset="0" style="stop-color:#067FED"/>
	<stop  offset="1" style="stop-color:#07EDE6"/>
</linearGradient>
<path class="st6" d="M58.3,190.5c1.8,5.6,1.8,11.2,0,16.8C58.3,201.7,58.3,196.1,58.3,190.5z"/>
<linearGradient id="SVGID_8_" gradientUnits="userSpaceOnUse" x1="102.2492" y1="198.927" x2="103.7717" y2="198.927">
	<stop  offset="0" style="stop-color:#067FED"/>
	<stop  offset="1" style="stop-color:#07EDE6"/>
</linearGradient>
<path class="st7" d="M103.8,192c0,4.6,0,9.2,0,13.9c-0.1,0.2-0.1,0.4-0.2,0.6c-0.2,0.3-0.5,0.5-0.8,0.7c-0.7-5.5-0.7-11,0-16.5
	c0.2,0.1,0.4,0.1,0.5,0.2C103.5,191.2,103.6,191.6,103.8,192z"/>
<linearGradient id="SVGID_9_" gradientUnits="userSpaceOnUse" x1="94.6817" y1="198.9268" x2="296.0736" y2="198.9268">
	<stop  offset="0" style="stop-color:#067FED"/>
	<stop  offset="1" style="stop-color:#07EDE6"/>
</linearGradient>
<path class="st8" d="M196.7,98.2c-56.5-0.1-101.9,44.6-102,100.2c-0.1,55.8,45,101.1,100.4,101.2c55.7,0,101-45,101-100.6
	C296.1,144,251.1,98.3,196.7,98.2z M124.1,256c-10.5-13.1-17-27.8-19.2-44.5c-0.2-1.9-0.8-3.8-1.2-5.7c-1.2-4.6-1.2-9.2,0-13.9
	c2.3-16.4,6.9-31.9,16.8-45.5c15.6-21.5,36.4-34.5,62.8-38.1c2.3-0.3,4.7-0.7,7-1.1c1.6,0.8,1.8,2.3,1.7,3.9
	c-0.7,9.1,1.6,18.3-1.3,27.3c-8.8,0.2-17.6,0.7-26.5-2.1c1.3-3.4,3.8-6,6.1-8.7c2.1-2.5,2.8-5.1,0.1-7.3c-2.8-2.4-5.2-0.8-7.2,1.6
	c-1.8,2.2-3.8,4.3-5.1,6.7c-2.5,4.4-5.3,7.6-11.2,5.7c-2.2-0.7-4.3,0.7-4.7,3.3c-0.4,2.3,0.3,4.3,2.8,5.1c2,0.6,3.7,1.1,2.2,3.9
	c-7.8,15-10.8,31.3-12.5,47.9c-6,2.3-12,1.6-18.1,0.4c-4.6,2.8-4.6,5.5,0,8.3c0,0,0,0,0,0c0,0,0,0,0,0c6.1-1.2,12.1-1.9,18.1,0.4
	c1.7,17.5,5.2,34.5,13.9,50.5c-7,1.8-13.6,3.5-20.3,5.1C126,259.7,125.3,257.5,124.1,256z M190.7,194.3c-0.7,1.2-2,1.4-3.2,1.4
	c-13.4,0-26.8,0-40.2,0c-1.4,0-2.6-0.3-3.3-1.6c1.5-15.3,4.8-30.1,11.6-44.1c1.8-3.6,3.4-4.9,7.8-4.2c8.9,1.4,18,2.4,27.1,1.9
	c1.7,0.9,1.6,2.4,1.6,3.9c0,13,0,25.9,0,38.9C192.1,191.9,192.2,193.4,190.7,194.3z M192.1,206.8c0,13.4,0,26.8,0,40.2
	c0,1.3-0.1,2.6-1.5,3.3c-9.1-0.4-18.1,0.5-27.1,2c-4.4,0.7-6.1-0.8-7.8-4.3c-6.9-13.9-10.1-28.8-11.7-44.1l0,0
	c0.7-1.3,1.9-1.6,3.3-1.6c13.4,0,26.8,0,40.2,0c1.3,0,2.5,0.2,3.2,1.4C191.9,204.3,192.1,205.5,192.1,206.8z M135,267
	c0.9-0.5,1.2-0.7,1.6-0.8c11.3-4.7,20.2-3.3,26.2,8.8c2.1,4.3,6.4,7.4,9.8,11.2C164,286.8,145.8,277.5,135,267z M190.9,288
	c-8.2-3.3-13.3-10.2-19.1-16.3c-2.8-2.9-5.1-6.3-8.1-10.1c9.4-2,18.2-2.5,27.1-2.2C193.1,268.9,192.8,278.5,190.9,288z M266.6,141.8
	C279.1,157,285,174.7,287,194c-0.8,1.6-2.3,1.8-3.8,1.7c-9.1-0.7-18.3,1.5-27.3-1.2c-1.8-17.5-5.1-34.5-14-50.5
	c7.1-1.8,13.7-3.5,20.3-5.2C264.7,138.1,265.5,140.4,266.6,141.8z M200.2,250.3c-1.7-0.9-1.5-2.5-1.5-4c0-13,0-25.9,0-38.9
	c0-1.5-0.1-3,1.4-3.9c0.7-1.2,2-1.4,3.2-1.4c13.4,0,26.8,0,40.2,0c1.4,0,2.6,0.3,3.3,1.6c-1.6,15.1-4.6,29.7-11.4,43.5
	c-2,4-3.8,5.6-8.7,4.8C217.9,250.7,209,249.8,200.2,250.3L200.2,250.3L200.2,250.3z M243.4,195.7c-13.4,0-26.8,0-40.2,0
	c-1.3,0-2.5-0.2-3.2-1.4c-1.2-0.7-1.4-2-1.4-3.2c0-13.4,0-26.8,0-40.2c0-1.3,0.2-2.6,1.5-3.3c9.1,0.5,18.1-0.5,27-1.9
	c4.3-0.7,6,0.7,7.8,4.3c6.9,13.9,10.1,28.8,11.7,44.1l0,0C246,195.4,244.8,195.7,243.4,195.7z M255.7,130.8
	c-0.9,0.5-1.2,0.7-1.6,0.8c-11.3,4.7-20.2,3.3-26.2-8.8c-2.1-4.3-6.4-7.4-9.8-11.2C226.8,111.1,245,120.3,255.7,130.8z M199.8,109.8
	c8.2,3.2,13.3,10.2,19.1,16.3c2.8,2.9,5.1,6.3,8.2,10.2c-9.6,1.2-18.2,3.6-27.2,2c0,0,0,0,0,0C197.7,128.9,197.9,119.4,199.8,109.8z
	 M199.8,288c-1.9-9.5-2.2-19.1,0.1-28.6c8.8-0.4,17.4,0.5,27.1,1.9C219,271.9,211.7,282.2,199.8,288z M216.8,287.6
	c7.4-8.1,13.9-14.7,18.7-22.6c1.3-2.1,3-2.1,5-1.7c5,1.1,9.9,2.1,16.1,3.4C244.8,277,232.6,283.8,216.8,287.6z M267.1,255.6
	c-2.3,2.9-4.2,4-8.1,2.7c-5.4-1.9-11.2-2.8-17.2-4.3c8.8-16.1,12.3-33.1,14-50.6c10.4-1.8,20.8-2.7,31.2,0.4
	C285.1,222.9,279.2,240.4,267.1,255.6z"/>
</svg>
